<?xml version="1.0" encoding="UTF-8" standalone="no"?>
<!-- Generator: Adobe Illustrator 18.1.1, SVG Export Plug-In . SVG Version: 6.00 Build 0)  -->

<svg
   xmlns:dc="http://purl.org/dc/elements/1.1/"
   xmlns:cc="http://creativecommons.org/ns#"
   xmlns:rdf="http://www.w3.org/1999/02/22-rdf-syntax-ns#"
   xmlns:svg="http://www.w3.org/2000/svg"
   xmlns="http://www.w3.org/2000/svg"
   xmlns:sodipodi="http://sodipodi.sourceforge.net/DTD/sodipodi-0.dtd"
   xmlns:inkscape="http://www.inkscape.org/namespaces/inkscape"
   version="1.1"
   id="Layer_1"
   x="0px"
   y="0px"
   viewBox="0 0 9999.9997 10134.875"
   enable-background="new 0 0 200 200"
   xml:space="preserve"
   inkscape:version="0.91 r13725"
   sodipodi:docname="circleci-icon.svg"
   width="10000"
   height="10134.875"><metadata
     id="metadata13"><rdf:RDF><cc:Work
         rdf:about=""><dc:format>image/svg+xml</dc:format><dc:type
           rdf:resource="http://purl.org/dc/dcmitype/StillImage" /><dc:title></dc:title></cc:Work></rdf:RDF></metadata><defs
     id="defs11" /><sodipodi:namedview
     pagecolor="#ffffff"
     bordercolor="#666666"
     borderopacity="1"
     objecttolerance="10"
     gridtolerance="10"
     guidetolerance="10"
     inkscape:pageopacity="0"
     inkscape:pageshadow="2"
     inkscape:window-width="3070"
     inkscape:window-height="1752"
     id="namedview9"
     showgrid="false"
     fit-margin-top="0"
     fit-margin-left="0"
     fit-margin-right="0"
     fit-margin-bottom="0"
     inkscape:zoom="0.07375"
     inkscape:cx="4898.5164"
     inkscape:cy="5111.5671"
     inkscape:window-x="130"
     inkscape:window-y="48"
     inkscape:window-maximized="1"
     inkscape:current-layer="Layer_1" /><path
     style="fill:#343434"
     inkscape:connector-curvature="0"
     id="path7"
     d="m 3718.6896,5067.4377 c 0,-664.7399 539.4992,-1204.239 1204.2391,-1204.239 664.7398,0 1204.2389,539.4991 1204.2389,1204.239 0,664.7399 -539.4991,1204.2388 -1204.2389,1204.2388 -664.7399,9.634 -1204.2391,-539.4989 -1204.2391,-1204.2388 z M 4922.9287,0 C 2552.9865,0 568.40063,1618.4974 9.63372,3815.0291 9.63372,3834.2968 0,3843.9309 0,3863.1987 c 0,134.8747 105.97301,240.8477 240.84781,240.8477 l 2042.38939,0 c 96.3389,0 183.0441,-57.8033 221.5798,-144.5087 l 0,0 C 2928.7089,3044.3162 3843.9306,2408.478 4922.9287,2408.478 c 1464.3544,0 2658.9595,1194.605 2658.9595,2658.9597 0,1464.3545 -1194.6051,2658.9594 -2658.9595,2658.9594 -1069.3641,0 -1994.2198,-635.8381 -2418.1117,-1551.0598 l 0,0 c -38.5357,-86.7051 -125.2409,-144.5085 -221.5798,-144.5085 l -2042.38939,0 C 105.97301,6030.8288 0,6136.8018 0,6271.6765 c 0,19.2678 0,28.9017 9.63372,48.1696 C 568.40063,8516.3779 2552.9865,10134.875 4922.9287,10134.875 7726.3969,10134.875 10000,7861.2719 10000,5057.8037 10000,2263.9693 7726.3969,0 4922.9287,0 Z" /></svg>