<?xml version="1.0" encoding="UTF-8" standalone="no"?>
<!-- Created with Inkscape (http://www.inkscape.org/) -->

<svg
   xmlns:dc="http://purl.org/dc/elements/1.1/"
   xmlns:cc="http://creativecommons.org/ns#"
   xmlns:rdf="http://www.w3.org/1999/02/22-rdf-syntax-ns#"
   xmlns:svg="http://www.w3.org/2000/svg"
   xmlns="http://www.w3.org/2000/svg"
   xmlns:sodipodi="http://sodipodi.sourceforge.net/DTD/sodipodi-0.dtd"
   xmlns:inkscape="http://www.inkscape.org/namespaces/inkscape"
   width="3386.6667mm"
   height="3386.6667mm"
   viewBox="0 0 12000 12000"
   id="svg2"
   version="1.1"
   inkscape:version="0.91 r13725"
   sodipodi:docname="logo-icon-master.svg">
  <defs
     id="defs4" />
  <sodipodi:namedview
     id="base"
     pagecolor="#ffffff"
     bordercolor="#666666"
     borderopacity="1.0"
     inkscape:pageopacity="0.0"
     inkscape:pageshadow="2"
     inkscape:zoom="0.061871843"
     inkscape:cx="4139.452"
     inkscape:cy="4381.9246"
     inkscape:document-units="px"
     inkscape:current-layer="layer1"
     showgrid="false"
     inkscape:window-width="3070"
     inkscape:window-height="1752"
     inkscape:window-x="130"
     inkscape:window-y="48"
     inkscape:window-maximized="1"
     fit-margin-top="0"
     fit-margin-left="0"
     fit-margin-right="0"
     fit-margin-bottom="0" />
  <metadata
     id="metadata7">
    <rdf:RDF>
      <cc:Work
         rdf:about="">
        <dc:format>image/svg+xml</dc:format>
        <dc:type
           rdf:resource="http://purl.org/dc/dcmitype/StillImage" />
        <dc:title></dc:title>
      </cc:Work>
    </rdf:RDF>
  </metadata>
  <g
     inkscape:label="Layer 1"
     inkscape:groupmode="layer"
     id="layer1"
     transform="translate(15267.308,9952.2031)">
    <rect
       style="fill:#343434;fill-opacity:1;stroke:none;stroke-width:10;stroke-linecap:round;stroke-linejoin:round;stroke-miterlimit:4;stroke-dasharray:none;stroke-opacity:1"
       id="rect4631"
       width="12000"
       height="12000"
       x="-15267.308"
       y="-9952.2031" />
    <g
       id="g4826"
       transform="translate(208.04133,244.50823)">
      <path
         inkscape:connector-curvature="0"
         id="path4732"
         d="m -9475.3489,-7196.7114 a 3000,3000 0 0 0 -3000.0001,3000 3000,3000 0 0 0 1435.238,2556.6191 l 0,-2549.8906 a 1565,1565 0 0 1 -0.238,-6.7285 1565,1565 0 0 1 1565.0001,-1565 1565,1565 0 0 1 1565,1565 l 1435,0 a 3000,3000 0 0 0 -3000,-3000 z"
         style="fill:#ffffff;fill-opacity:1;stroke:none;stroke-width:10;stroke-linecap:round;stroke-linejoin:round;stroke-miterlimit:4;stroke-dasharray:none;stroke-opacity:1" />
      <path
         inkscape:connector-curvature="0"
         id="path4732-2"
         d="m -7354.0286,-6318.0316 a 3000,3000 0 0 0 -4242.6404,-2e-4 3000,3000 0 0 0 -792.936,2822.6693 l 1803.045,-1803.045 a 1565,1565 0 0 1 4.589,-4.926 1565,1565 0 0 1 2213.2441,2e-4 1565,1565 0 0 1 0,2213.2442 l 1014.6983,1014.6982 a 3000,3000 0 0 0 0,-4242.6407 z"
         style="fill:#ffffff;fill-opacity:0.7;stroke:none;stroke-width:10;stroke-linecap:round;stroke-linejoin:round;stroke-miterlimit:4;stroke-dasharray:none;stroke-opacity:1" />
      <path
         inkscape:connector-curvature="0"
         id="path4732-2-9"
         d="m -6475.3489,-4196.7113 a 3000,3000 0 0 0 -2999.9996,-2999.9999 3000,3000 0 0 0 -2556.6195,1435.2382 l 2549.8911,0 a 1565,1565 0 0 1 6.7281,-0.2383 1565,1565 0 0 1 1564.9998,1565 1565,1565 0 0 1 -1565,1565 l 10e-5,1435 a 3000,3000 0 0 0 3000,-3000 z"
         style="fill:#ffffff;fill-opacity:0.5;stroke:none;stroke-width:10;stroke-linecap:round;stroke-linejoin:round;stroke-miterlimit:4;stroke-dasharray:none;stroke-opacity:1" />
      <path
         inkscape:connector-curvature="0"
         id="path4732-2-9-3"
         d="m -7354.0285,-2075.3909 a 3000,3000 0 0 0 2e-4,-4242.6403 3000,3000 0 0 0 -2822.6697,-792.9363 l 1803.0451,1803.0453 a 1565,1565 0 0 1 4.926,4.589 1565,1565 0 0 1 0,2213.244 1565,1565 0 0 1 -2213.2441,0 l -1014.698,1014.6983 a 3000,3000 0 0 0 4242.6405,0 z"
         style="fill:#ffffff;fill-opacity:0.3;stroke:none;stroke-width:10;stroke-linecap:round;stroke-linejoin:round;stroke-miterlimit:4;stroke-dasharray:none;stroke-opacity:1" />
      <path
         inkscape:connector-curvature="0"
         id="path4732-2-9-3-1"
         d="m -9475.3484,-1196.7113 a 3000,3000 0 0 0 2999.9995,-2999.9996 3000,3000 0 0 0 -1435.2385,-2556.6196 l 0,2549.8913 a 1565,1565 0 0 1 0.239,6.728 1565,1565 0 0 1 -1565,1564.9998 1565,1565 0 0 1 -1565.0006,-1565.0001 l -1434.999,2e-4 a 3000,3000 0 0 0 2999.9996,3000 z"
         style="fill:#ffffff;fill-opacity:0.1;stroke:none;stroke-width:10;stroke-linecap:round;stroke-linejoin:round;stroke-miterlimit:4;stroke-dasharray:none;stroke-opacity:1" />
    </g>
  </g>
</svg>
